<svg width="1200" height="223" viewBox="0 0 1200 223" fill="none" xmlns="http://www.w3.org/2000/svg">
<path d="M169.416 108.141C185.96 97.6673 196.904 79.1511 196.72 58.0848C196.438 25.7517 169.41 0 137.064 0H59.6582C27.3121 0 0.284304 25.7507 0.0022855 58.0848C-0.181726 79.1521 10.761 97.6673 27.3051 108.141C29.4252 109.483 29.4252 112.532 27.3051 113.874C10.761 124.347 -0.181726 142.863 0.0022855 163.93C0.284304 196.263 27.3121 222.014 59.6572 222.014H137.063C169.408 222.014 196.436 196.264 196.719 163.93C196.903 142.863 185.959 124.347 169.415 113.873C167.296 112.531 167.297 109.483 169.416 108.141ZM92.2043 19.6413C92.9813 19.1452 93.8524 20.1463 93.2583 20.8514C84.6558 31.05 79.4714 44.2229 79.4714 58.6068C79.4714 72.9907 84.6558 86.1646 93.2583 96.3623C93.8524 97.0673 92.9833 98.0674 92.2043 97.5723C79.3334 89.3648 70.7789 74.9679 70.7789 58.6068C70.7789 42.2457 79.3334 27.8498 92.2043 19.6413ZM76.1472 14.4439C76.9703 14.1919 77.5563 15.234 76.9283 15.823C65.5035 26.5167 58.3621 41.7267 58.3621 58.6058C58.3621 75.4849 65.5045 90.6959 76.9283 101.39C77.5553 101.977 76.9693 103.021 76.1472 102.769C57.246 96.9743 43.4611 79.3741 43.4611 58.6058C43.4611 37.8375 57.247 20.2373 76.1472 14.4439ZM12.4171 58.6078C12.4171 35.9783 28.7822 17.1081 50.3015 13.1779C51.1106 13.0298 51.6026 14.0469 50.9856 14.5899C38.7638 25.3296 31.0433 41.0627 31.0433 58.6078C31.0433 76.1529 38.7638 91.887 50.9856 102.626C51.6046 103.169 51.1106 104.186 50.3015 104.038C28.7822 100.107 12.4171 81.2383 12.4171 58.6078ZM58.6261 209.602C33.1464 209.602 12.4181 188.878 12.4181 163.409C12.4181 137.939 33.1474 117.215 58.6261 117.215C84.1047 117.215 104.834 137.938 104.834 163.409C104.834 188.879 84.1047 209.602 58.6261 209.602ZM104.518 202.373C103.741 202.869 102.87 201.868 103.464 201.163C112.067 190.964 117.251 177.792 117.251 163.407C117.251 149.022 112.067 135.85 103.464 125.651C102.87 124.946 103.74 123.946 104.518 124.441C117.389 132.65 125.943 147.046 125.943 163.407C125.943 179.768 117.389 194.164 104.518 202.373ZM120.575 207.57C119.752 207.822 119.165 206.779 119.794 206.191C131.219 195.498 138.36 180.288 138.36 163.409C138.36 146.529 131.218 131.319 119.794 120.625C119.167 120.038 119.753 118.994 120.575 119.246C139.476 125.039 153.261 142.64 153.261 163.409C153.261 184.177 139.475 201.777 120.575 207.57ZM184.305 163.409C184.305 186.038 167.94 204.908 146.421 208.838C145.612 208.986 145.12 207.968 145.737 207.425C157.959 196.686 165.679 180.953 165.679 163.409C165.679 145.864 157.959 130.129 145.737 119.391C145.119 118.848 145.612 117.831 146.421 117.979C167.94 121.909 184.305 140.778 184.305 163.409ZM138.096 104.8C112.618 104.8 91.8882 84.0765 91.8882 58.6058C91.8882 33.1351 112.618 12.4128 138.096 12.4128C163.575 12.4128 184.304 33.1351 184.304 58.6058C184.304 84.0765 163.575 104.8 138.096 104.8ZM352.806 140.954C352.806 168.034 330.943 187.29 296.44 187.29C283.805 187.29 272.771 185.284 263.343 181.472C253.916 177.461 243.887 170.64 233.256 161.012L250.105 141.153C259.532 149.377 267.557 155.195 274.176 158.204C280.795 161.212 288.418 162.818 297.043 162.818C313.693 162.818 324.925 155.394 324.925 143.16C324.925 139.348 323.721 136.54 321.515 134.334C316.902 129.72 310.683 127.914 295.638 124.705L288.819 123.101C250.707 113.874 239.675 103.444 239.675 80.7762C239.675 56.9057 261.738 38.2495 294.034 38.2495C305.668 38.2495 315.699 39.8546 324.121 43.2638C332.746 46.674 341.573 52.2914 351.001 60.3149L334.552 79.9732C326.327 73.1537 319.508 68.5404 313.69 66.1333C307.872 63.7251 301.254 62.5211 293.43 62.5211C277.583 62.5211 267.355 69.7435 267.355 79.9732C267.355 83.5854 268.559 86.3916 270.765 88.5997C273.172 90.8059 276.582 92.611 280.995 94.0151C285.408 95.4192 292.429 97.2243 302.057 99.4305C338.565 108.458 352.004 116.481 352.806 140.952V140.954ZM454.003 81.3783H454.005V183.881H430.133V173.047C424.718 181.875 414.689 187.09 400.045 187.09C375.775 187.09 363.738 174.453 363.738 154.594V81.3783H389.816V147.372C389.816 158.004 395.632 164.423 406.865 164.423C419.903 164.423 427.926 156.999 427.926 143.161V81.3783H454.003ZM534.701 78.3691C520.259 78.3691 509.427 83.7864 502.006 94.8171V81.3783H477.733V219.986H503.811V173.248C510.831 182.277 521.063 186.689 534.502 186.689L534.5 186.691C560.576 186.691 580.034 165.426 580.034 132.531C580.034 100.034 560.979 78.3691 534.701 78.3691ZM528.485 164.023C513.441 164.023 502.808 151.986 502.808 132.53C502.808 113.273 513.441 100.836 528.685 100.836C543.929 100.836 553.558 113.273 553.558 132.53C553.558 151.786 543.528 164.023 528.485 164.023ZM662.034 162.015C658.023 164.023 653.209 165.024 647.39 165.024C630.339 165.024 620.914 155.195 618.504 139.347H692.121C692.322 136.339 692.523 132.929 692.523 129.117C692.523 97.0243 675.273 77.9681 644.582 77.9681C612.688 77.9681 593.031 101.236 593.031 133.13C593.031 165.828 613.691 187.089 646.788 187.089C664.239 187.089 678.081 181.674 692.523 167.031L677.88 150.985C671.462 156.398 666.247 160.009 662.034 162.015ZM643.778 98.4284C657.62 98.4284 666.045 106.853 667.048 120.695H619.105C622.114 106.853 630.339 98.4284 643.778 98.4284ZM908.997 77.9691C877.907 77.9691 855.641 100.034 855.641 132.53C855.641 165.025 877.907 187.089 908.997 187.089C939.887 187.089 962.153 165.024 962.153 132.53C962.153 100.035 939.888 77.9691 908.997 77.9691ZM908.997 165.024C892.75 165.024 882.118 152.385 882.118 132.528C882.118 113.069 892.75 100.031 908.997 100.031C925.043 100.031 935.676 113.071 935.676 132.528C935.676 152.387 925.043 165.024 908.997 165.024ZM1200 112.267V183.879L1173.92 183.88V120.092C1173.92 107.856 1168.91 100.435 1157.68 100.435C1146.24 100.435 1139.63 108.859 1139.63 120.896V183.88H1113.54V120.092C1113.54 107.054 1108.12 100.435 1097.3 100.435C1085.86 100.435 1079.24 108.859 1079.24 120.896V183.88H1053.17V81.3773H1077.44V92.81C1083.45 82.9814 1093.28 77.9671 1106.72 77.9671C1119.76 77.9671 1129.6 83.3824 1135.21 93.011C1142.23 82.9814 1152.46 77.9671 1165.9 77.9671C1187.56 77.9671 1200 91.2069 1200 112.267ZM1031.68 80.5692C1034.46 81.0373 1037.26 81.4243 1040.06 81.7423V104.935C1035.55 104.646 1031.04 104.324 1026.54 103.963C1025.57 103.884 1024.65 103.847 1023.8 103.847C1009.96 103.847 1001.33 114.878 1001.33 133.333V183.882H975.254V81.3803H999.524V96.4253C1004.94 85.3935 1013.37 79.9762 1025.2 79.9762C1027.16 79.9762 1029.32 80.1732 1031.68 80.5692ZM761.913 80.5692C764.696 81.0373 767.49 81.4243 770.292 81.7423V104.935C765.784 104.646 761.277 104.324 756.773 103.963C755.799 103.884 754.883 103.847 754.031 103.847C740.189 103.847 731.565 114.878 731.565 133.333V183.882H705.489V81.3803H729.76V96.4253C735.175 85.3935 743.6 79.9762 755.435 79.9762C757.396 79.9762 759.555 80.1732 761.913 80.5692ZM831.568 37.8515C838.992 37.8515 846.21 39.0545 853.432 41.4617L848.819 60.918C844.006 59.9169 839.993 59.3128 836.784 59.3128C828.158 59.3128 824.346 62.9251 824.346 72.5527V83.0004L842.531 83.0064V105.784L824.346 105.798V183.88H798.27V105.817L787.795 105.825C786.281 105.827 784.768 105.788 783.254 105.776V82.9694C784.393 82.9784 785.533 82.9894 786.672 82.9894L798.27 82.9934V71.1496C798.27 48.8832 809.904 37.8515 831.568 37.8515Z" fill="black"/>
</svg>
